<?xml version="1.0" encoding="utf-8"?>
<!-- Generator: Adobe Illustrator 16.0.0, SVG Export Plug-In . SVG Version: 6.00 Build 0)  -->
<!DOCTYPE svg PUBLIC "-//W3C//DTD SVG 1.1//EN" "http://www.w3.org/Graphics/SVG/1.1/DTD/svg11.dtd">
<svg version="1.1" id="Layer_1" xmlns="http://www.w3.org/2000/svg" xmlns:xlink="http://www.w3.org/1999/xlink" x="0px" y="0px"
	 width="162px" height="77.999px" viewBox="0 0 162 77.999" enable-background="new 0 0 162 77.999" xml:space="preserve">
<path fill="none" stroke="#DCDDDE" stroke-width="1.0341" stroke-miterlimit="10" d="M80.715,62.303"/>
<path fill="none" stroke="#DCDDDE" stroke-width="1.0341" stroke-miterlimit="10" d="M83.988,53.195"/>
<path fill="none" stroke="#DCDDDE" stroke-width="0.4595" stroke-linecap="round" stroke-linejoin="round" stroke-miterlimit="10" d="
	M73.815,53.269c6.081-0.296,10.673-0.519,10.702-0.521c3.107-0.151,7.364-3.219,4.236-6.275c-1.672-1.635-11.603-6.626-14.141-6.795
	"/>
<g>
	<path fill="#010101" d="M57.533,54.049c4.072-0.2,4.142-0.206,9.038-0.445"/>
	<path fill="#DCDDDE" d="M57.533,54.049c0,0,0.56-0.133,1.403-0.264c0.843-0.128,1.97-0.24,3.1-0.299
		c1.13-0.054,2.262-0.053,3.114-0.009c0.852,0.048,1.422,0.126,1.422,0.126s-0.56,0.134-1.403,0.265
		c-0.843,0.128-1.97,0.24-3.1,0.298c-1.13,0.053-2.262,0.052-3.114,0.008C58.103,54.126,57.533,54.049,57.533,54.049z"/>
</g>
<path fill="none" stroke="#DCDDDE" stroke-width="0.4595" stroke-linecap="round" stroke-linejoin="round" stroke-miterlimit="10" d="
	M65.875,40.823c-3.291-2.213-7.724-4.283-11.706-4.637c-4.046-0.356-8.16,0.288-11.159,3.24c0,0-6.97,5.996-2.32,12.355l3.211,3.075
	"/>
<g>
	<path fill="#A7A9AC" d="M85.436,48.596c0-0.001-0.302-0.229-0.826-0.415c-0.124-0.062-0.275-0.081-0.426-0.122
		c-0.155-0.024-0.306-0.103-0.48-0.098c-0.168-0.012-0.343-0.023-0.521-0.035c-0.175-0.031-0.354,0.034-0.531,0.049
		c-0.175,0.03-0.35,0.06-0.522,0.089c-0.164,0.064-0.325,0.128-0.48,0.189c-0.161,0.045-0.311,0.102-0.464,0.132
		c-0.146,0.048-0.273,0.125-0.398,0.18c-0.498,0.22-0.885,0.325-0.885,0.325c-0.013,0.007-0.029,0.001-0.036-0.012
		c-0.004-0.009,0-0.022,0.004-0.029c0,0,0.255-0.283,0.721-0.646c0.121-0.082,0.242-0.189,0.389-0.271
		c0.153-0.071,0.325-0.123,0.499-0.189c0.178-0.051,0.362-0.103,0.549-0.155c0.195-0.016,0.395-0.017,0.591-0.024
		c0.197,0.003,0.393-0.044,0.583,0.008c0.189,0.033,0.376,0.065,0.557,0.097c0.182,0.017,0.341,0.109,0.498,0.16
		c0.153,0.064,0.304,0.106,0.426,0.188c0.513,0.267,0.784,0.539,0.784,0.539c0.011,0.01,0.012,0.026,0.003,0.037
		C85.463,48.602,85.447,48.603,85.436,48.596z"/>
</g>
<g>
	<path fill="#A7A9AC" d="M83.832,49.301c0,0-0.25-0.044-0.616,0.007c-0.091,0.001-0.187,0.035-0.288,0.058
		c-0.099,0.033-0.21,0.03-0.311,0.086c-0.102,0.043-0.208,0.088-0.315,0.134c-0.111,0.033-0.197,0.126-0.295,0.187l-0.276,0.207
		c-0.073,0.092-0.15,0.173-0.224,0.253c-0.163,0.141-0.33,0.264-0.438,0.41c-0.253,0.256-0.49,0.413-0.49,0.413
		c-0.011,0.011-0.028,0.011-0.039-0.001c-0.005-0.005-0.007-0.017-0.007-0.022c0,0,0.042-0.262,0.205-0.633
		c0.046-0.088,0.087-0.192,0.15-0.288c0.069-0.094,0.162-0.176,0.249-0.27c0.096-0.083,0.195-0.17,0.3-0.249l0.365-0.18
		c0.124-0.054,0.233-0.136,0.367-0.157c0.127-0.032,0.252-0.063,0.374-0.094c0.118-0.04,0.242-0.027,0.354-0.037
		c0.113-0.002,0.218-0.016,0.316,0.002c0.391,0.027,0.631,0.124,0.631,0.124c0.014,0.005,0.021,0.019,0.018,0.032
		C83.857,49.295,83.843,49.302,83.832,49.301z"/>
</g>
<g>
	<path fill="#A7A9AC" d="M85.068,50.201c0,0-0.214-0.033-0.525,0.016c-0.078,0.002-0.159,0.033-0.245,0.054
		c-0.083,0.03-0.178,0.029-0.263,0.077c-0.086,0.038-0.174,0.078-0.265,0.118c-0.094,0.029-0.165,0.109-0.247,0.162l-0.229,0.18
		c-0.06,0.079-0.124,0.148-0.185,0.216c-0.137,0.119-0.282,0.22-0.377,0.341c-0.223,0.212-0.438,0.339-0.438,0.339
		c-0.012,0.011-0.03,0.009-0.04-0.003c-0.004-0.005-0.006-0.016-0.006-0.021c0,0,0.021-0.231,0.153-0.558
		c0.06-0.165,0.169-0.339,0.336-0.487c0.084-0.072,0.17-0.146,0.262-0.214l0.319-0.152c0.108-0.045,0.203-0.115,0.318-0.133
		c0.11-0.026,0.219-0.053,0.324-0.078c0.102-0.032,0.209-0.021,0.306-0.028c0.098,0,0.188-0.011,0.272,0.006
		c0.336,0.029,0.541,0.115,0.541,0.115c0.014,0.005,0.021,0.02,0.017,0.033C85.093,50.195,85.079,50.202,85.068,50.201z"/>
</g>
<g>
	<path fill="#DCDDDE" d="M40.679,51.805c0,0-0.142-0.056-0.407-0.161c-0.268-0.097-0.649-0.279-1.156-0.437
		c-0.508-0.15-1.104-0.383-1.827-0.525c-0.355-0.094-0.737-0.172-1.144-0.225c-0.406-0.059-0.83-0.15-1.28-0.153
		c-0.449-0.018-0.916-0.072-1.397-0.02c-0.482,0.027-0.982,0.028-1.486,0.137c-0.253,0.041-0.51,0.083-0.77,0.125
		c-0.254,0.069-0.511,0.141-0.771,0.212c-0.523,0.126-1.053,0.323-1.592,0.509c-1.082,0.362-2.19,0.775-3.337,1.132
		c-1.136,0.393-2.324,0.682-3.515,0.97c-1.19,0.243-2.4,0.491-3.633,0.502c-1.225-0.008-2.473-0.299-3.473-1.002
		c-0.986-0.716-1.608-1.786-1.865-2.849c-0.278-1.068-0.177-2.14,0.123-3.041c0.303-0.892,0.794-1.684,1.497-2.094
		c0.344-0.204,0.745-0.297,1.097-0.226c0.191,0.051,0.308,0.08,0.46,0.154c0.146,0.086,0.285,0.168,0.369,0.294
		c0.393,0.485,0.193,1.015,0.052,1.239c-0.152,0.25-0.261,0.361-0.261,0.361c-0.01,0.011-0.026,0.012-0.037,0.002
		c-0.01-0.01-0.01-0.025-0.002-0.035c0,0,0.097-0.121,0.218-0.368c0.12-0.229,0.23-0.716-0.123-1.063
		c-0.147-0.175-0.422-0.264-0.716-0.318c-0.287-0.039-0.599,0.055-0.879,0.244c-0.566,0.385-0.997,1.11-1.244,1.947
		c-0.239,0.838-0.29,1.812-0.042,2.775c0.235,0.967,0.819,1.894,1.671,2.546c0.86,0.638,2.007,0.938,3.165,0.98
		c1.17,0.046,2.372-0.14,3.574-0.327c0.597-0.104,1.187-0.236,1.78-0.354c0.593-0.115,1.16-0.331,1.735-0.49
		c1.138-0.365,2.234-0.798,3.287-1.24c0.528-0.219,1.038-0.445,1.576-0.61c0.265-0.09,0.528-0.178,0.787-0.265
		c0.269-0.05,0.535-0.098,0.797-0.146c1.047-0.21,2.069-0.193,2.989-0.105c0.465,0.015,0.899,0.118,1.314,0.188
		c0.419,0.059,0.802,0.174,1.161,0.286c0.725,0.193,1.331,0.449,1.826,0.655c0.494,0.208,0.853,0.425,1.111,0.548
		c0.254,0.131,0.39,0.2,0.39,0.2c0.013,0.007,0.018,0.022,0.011,0.035C40.705,51.805,40.691,51.81,40.679,51.805z"/>
</g>
<path fill="none" stroke="#DCDDDE" stroke-width="0.5" d="M78.205,43.618c-0.236,0.574,0.194,1.291,0.957,1.604
	c0.765,0.313,1.41,0.345,1.646-0.227c0.236-0.57-0.194-1.29-0.957-1.603C79.085,43.079,78.439,43.047,78.205,43.618z"/>
<path fill="none" stroke="#DCDDDE" stroke-width="0.4595" stroke-linecap="round" stroke-linejoin="round" stroke-miterlimit="10" d="
	M75.459,40.74c-2.421-3.604-5.185-9.706-9.886-3.287c-2.11,2.88,3.992,6.171,6.88,6.812"/>
<path fill="none" stroke="#DCDDDE" stroke-width="0.243" stroke-linecap="round" stroke-linejoin="round" stroke-miterlimit="10" d="
	M73.805,41.061c-1.048-1.558-2.241-4.198-4.274-1.422c-0.913,1.246,1.726,2.669,2.975,2.946"/>
<path fill="#010101" stroke="#DCDDDE" stroke-width="0.4595" stroke-miterlimit="10" d="M84.834,43.078"/>
<g>
	<g>
		<path fill="#DCDDDE" d="M69.513,49.392c0.37-0.071,0.751-0.104,1.129-0.072c0.19,0.003,0.378,0.023,0.565,0.06
			c0.188,0.024,0.375,0.061,0.555,0.121c0.184,0.05,0.368,0.1,0.537,0.19c0.172,0.082,0.354,0.146,0.501,0.274
			c0.149,0.119,0.328,0.208,0.435,0.373c0.108,0.15,0.275,0.294,0.335,0.474c0.071,0.177,0.184,0.33,0.22,0.524
			c0.033,0.191,0.103,0.388,0.102,0.582c-0.007,0.192,0.015,0.393-0.017,0.583c-0.036,0.19-0.054,0.387-0.106,0.573
			c-0.191,0.752-0.531,1.446-0.825,2.134l-0.248-0.269c0.483-0.198,0.978-0.402,1.5-0.553c0.522-0.137,1.083-0.269,1.689-0.126
			c0.296,0.076,0.6,0.229,0.817,0.475c0.218,0.265,0.334,0.486,0.453,0.769c0.095,0.261,0.238,0.644-0.022,1.047
			c-0.146,0.2-0.292,0.262-0.512,0.344l-0.386,0.074c-0.255,0.054-0.544,0.064-0.815,0.098c-0.281,0.035-0.538,0.033-0.803,0.047
			c-0.529,0.025-1.055,0.033-1.581,0.046c-1.053,0.012-2.103,0.034-3.155-0.001l-0.091-0.003l-0.055-0.042
			c-0.752-0.564-1.44-1.178-2.072-1.861c-0.618-0.686-1.208-1.438-1.495-2.341C66.025,52.464,66,51.97,66.15,51.523
			c0.066-0.225,0.188-0.434,0.335-0.611c0.136-0.189,0.319-0.339,0.5-0.479C67.734,49.884,68.627,49.603,69.513,49.392z
			 M69.513,49.392c-0.88,0.231-1.766,0.537-2.487,1.093c-0.174,0.142-0.349,0.292-0.475,0.478c-0.139,0.175-0.249,0.377-0.306,0.591
			c-0.133,0.428-0.067,0.889,0.087,1.303c0.324,0.835,0.936,1.528,1.577,2.154c0.649,0.622,1.371,1.187,2.114,1.676l-0.146-0.045
			l3.139-0.109c0.522-0.025,1.044-0.046,1.563-0.083l0.767-0.053c0.25-0.025,0.488-0.021,0.749-0.067l0.388-0.065
			c0.018-0.018,0.129-0.054,0.129-0.081c0.056-0.04,0.049-0.245-0.036-0.455c-0.074-0.204-0.208-0.451-0.322-0.592
			c-0.129-0.154-0.311-0.252-0.518-0.312c-0.42-0.118-0.932-0.063-1.421,0.041c-0.495,0.11-0.984,0.276-1.483,0.447l-0.462,0.157
			l0.214-0.426c0.343-0.681,0.713-1.333,0.938-2.038c0.061-0.175,0.088-0.355,0.134-0.534c0.042-0.18,0.031-0.363,0.049-0.546
			c0.013-0.184-0.042-0.355-0.058-0.537c-0.02-0.182-0.126-0.353-0.185-0.529c-0.05-0.191-0.198-0.296-0.301-0.455
			c-0.097-0.162-0.27-0.251-0.41-0.37c-0.139-0.128-0.316-0.194-0.482-0.279c-0.164-0.094-0.344-0.146-0.524-0.2
			c-0.177-0.064-0.361-0.105-0.547-0.133c-0.184-0.04-0.371-0.065-0.559-0.073C70.265,49.306,69.886,49.33,69.513,49.392z"/>
	</g>
</g>
<g>
	<g>
		<path fill="#DCDDDE" d="M46.876,45.709c0.6-0.138,1.228-0.162,1.841-0.133c0.616,0.035,1.23,0.124,1.834,0.271
			c0.603,0.153,1.195,0.38,1.732,0.723c0.268,0.17,0.525,0.368,0.746,0.607c0.12,0.11,0.219,0.239,0.313,0.374
			c0.053,0.077,0.087,0.107,0.156,0.223l0.1,0.208c0.122,0.287,0.294,0.527,0.358,0.859c0.055,0.326,0.167,0.665,0.162,0.988
			c-0.015,0.322,0.015,0.654-0.041,0.97c-0.061,0.312-0.1,0.637-0.199,0.938c-0.186,0.608-0.422,1.188-0.678,1.754
			c-0.26,0.563-0.545,1.107-0.821,1.651l-0.306-0.331c0.833-0.227,1.65-0.496,2.489-0.684c0.419-0.087,0.848-0.182,1.28-0.222
			c0.429-0.069,0.869-0.058,1.309-0.026c0.134,0.015,0.213,0.045,0.326,0.08c0.109,0.054,0.226,0.102,0.311,0.176
			c0.191,0.13,0.333,0.307,0.468,0.48c0.255,0.361,0.473,0.722,0.646,1.134c0.152,0.398,0.301,0.888,0.047,1.344
			c-0.083,0.088-0.16,0.196-0.258,0.263c-0.111,0.056-0.199,0.108-0.331,0.167l-0.626,0.128c-0.414,0.097-0.855,0.111-1.284,0.17
			c-0.435,0.055-0.859,0.079-1.286,0.112c-0.854,0.071-1.708,0.114-2.562,0.163c-1.708,0.097-3.416,0.135-5.127,0.165l-0.104,0.002
			l-0.089-0.061c-1.254-0.855-2.4-1.82-3.455-2.906c-1.034-1.087-2.041-2.288-2.523-3.796c-0.112-0.376-0.195-0.767-0.206-1.167
			c-0.005-0.398,0.042-0.808,0.189-1.18c0.058-0.192,0.144-0.371,0.253-0.538c0.09-0.177,0.209-0.332,0.34-0.478
			c0.119-0.156,0.252-0.295,0.403-0.416c0.146-0.126,0.282-0.262,0.446-0.359c0.309-0.225,0.637-0.41,0.977-0.572
			c0.332-0.176,0.689-0.292,1.028-0.448l1.061-0.352L46.876,45.709z M46.891,45.776l-1.065,0.312l-1.041,0.381
			c-0.331,0.161-0.68,0.289-0.988,0.491c-0.319,0.183-0.622,0.385-0.898,0.621c-0.15,0.104-0.267,0.241-0.393,0.368
			c-0.132,0.122-0.245,0.259-0.339,0.409c-0.107,0.141-0.202,0.287-0.267,0.449c-0.083,0.153-0.145,0.313-0.18,0.482
			c-0.102,0.327-0.108,0.676-0.079,1.014c0.025,0.341,0.115,0.678,0.23,1.007c0.511,1.309,1.453,2.455,2.459,3.495
			c1.024,1.031,2.165,1.978,3.335,2.831l-0.193-0.059l5.114-0.016c0.852-0.011,1.705-0.015,2.555-0.047
			c0.425-0.014,0.854-0.02,1.269-0.052c0.419-0.038,0.837-0.026,1.26-0.104l0.633-0.098c0.06-0.034,0.163-0.077,0.244-0.115
			c0.077-0.05,0.124-0.127,0.192-0.187c0.19-0.311,0.097-0.753-0.046-1.127c-0.15-0.377-0.366-0.76-0.602-1.095
			c-0.265-0.326-0.551-0.593-0.97-0.625c-0.414-0.018-0.827-0.021-1.243,0.057c-0.417,0.049-0.818,0.175-1.228,0.282
			c-0.816,0.234-1.605,0.548-2.407,0.815l-0.53,0.177l0.225-0.508l0.742-1.68c0.24-0.556,0.455-1.116,0.618-1.686
			c0.083-0.284,0.119-0.573,0.191-0.858c0.062-0.286,0.04-0.575,0.067-0.863c0.015-0.289-0.074-0.548-0.099-0.827
			c-0.032-0.275-0.212-0.563-0.302-0.849l-0.084-0.215l-0.1-0.158c-0.073-0.123-0.15-0.244-0.25-0.35
			c-0.178-0.227-0.397-0.425-0.633-0.601c-0.472-0.355-1.021-0.616-1.595-0.808c-0.573-0.196-1.177-0.306-1.785-0.351
			C48.102,45.649,47.491,45.654,46.891,45.776z"/>
	</g>
</g>
<g>
	<text transform="matrix(1 0 0 1 92 20.0063)" fill="#F7941E" font-family="'Hack-Regular'" font-size="10">two-photon</text>
	<text transform="matrix(1 0 0 1 92 33.2075)" fill="#F7941E" font-family="'Hack-Regular'" font-size="10">imaging</text>
</g>
<g>
	<text transform="matrix(1 0 0 1 92.667 56.9009)" fill="#A7A9AC" font-family="'Hack-Regular'" font-size="10">whiskers</text>
</g>
<g>
	<g enable-background="new    ">
		<text transform="matrix(1 0 0 1 33.0693 73.7329)" fill="#DCDDDE" font-family="'Hack-Regular'" font-size="10">ball</text>
	</g>
</g>
<text transform="matrix(1 0 0 1 4.832 12.5142)" fill="#DCDDDE" font-family="'Hack-Regular'" font-size="10">electrodes</text>
<ellipse fill="none" stroke="#F7941E" stroke-width="0.5" cx="81.104" cy="13.36" rx="4.979" ry="2.472"/>
<line fill="none" stroke="#F7941E" stroke-width="0.5" x1="76.125" y1="13.36" x2="76.125" y2="30.999"/>
<line fill="none" stroke="#F7941E" stroke-width="0.5" x1="86.083" y1="13.36" x2="86.083" y2="30.895"/>
<path fill="none" stroke="#F7941E" stroke-width="0.5" d="M86.083,30.871c0,0.669-2.229,1.211-4.979,1.211
	c-2.75,0-4.979-0.542-4.979-1.211"/>
<ellipse fill="none" stroke="#F7941E" stroke-width="0.3744" cx="80.989" cy="36.615" rx="1.864" ry="0.454"/>
<line fill="none" stroke="#F7941E" stroke-width="0.3744" x1="76.125" y1="30.871" x2="79.125" y2="36.615"/>
<line fill="none" stroke="#F7941E" stroke-width="0.3744" x1="82.853" y1="36.615" x2="86.083" y2="30.895"/>
<path opacity="0.8" fill="#DCDDDE" enable-background="new    " d="M55.866,14.972c5.365,5.711,11.074,11.338,16.214,17.149
	c0.873,0.986,2.34,2.371,1.467,2.524c-6.232-6.205-12.462-12.413-18.692-18.619"/>
<path fill="none" stroke="#DCDDDE" stroke-miterlimit="10" d="M8.634,70.974c0,0,22.375-10.867,57.125-10.867
	s58.75,10.867,58.75,10.867"/>
</svg>
